<svg version="1.1" baseProfile="full" xmlns="http://www.w3.org/2000/svg" height="890" width="1400">
 <defs>
  <g id="tokyo-metro-labels" >
   <g id="tokyo-metro-line-name-labels" font-size="26" font-weight="bold" fill="#344" >
    <text x="-200" y="-380">有楽町線</text>
    <text x="-200" y="-340">副都心線</text>
    <text x="-200" y="-260">東西線</text>

    <text x="-200" y="-165">都営新宿線</text>
    <text x="-200" y="-120">丸の内線</text>
    <text x="-240" y="-60">大江戸線</text>
    <text x="-192" y="60">千代田線</text>

    <text x="-120" y="148">副都心線</text>
    <text x="-120" y="174">半蔵門線</text>
    <text x="-120" y="200">銀座線</text>
    <text x="-180" y="350">日比谷線</text>
    <text x="-100" y="484">南北線</text>
    <text x="-100" y="510">三田線</text>
    <text x="-100" y="635">浅草線</text>
   </g>

   <g id="tokyo-metro-major-station-labels" font-size="32" font-weight="bold">
    <text transform="translate(0,-330) rotate(45)">池袋</text>
    <text transform="translate(0,-100) rotate(45)">新宿</text>
    <text transform="translate(0,217) rotate(45)">渋谷</text>
    <text transform="translate(-72,366) rotate(45)">中目黒</text>
    <text transform="translate(10,366) rotate(45)">恵比寿</text>
    <text transform="translate(-10,527) rotate(45)">目黒</text>
    <text transform="translate(-10,650) rotate(45)">五反田</text>

    <text transform="translate(490,215) rotate(45)">新橋</text>
    <text transform="translate(840,217) rotate(45)">神田</text>
    <text transform="translate(1050,214) rotate(45)">上野</text>
    <text transform="translate(1330,217) rotate(45)">浅草</text>

    <text transform="translate(350,186) rotate(45)">永田町</text>
   </g>

   <g id="ginza-line-station-labels" font-size="22" font-weight="bold">
    <text transform="translate(70,210) rotate(45)">表参道</text>
    <text transform="translate(140,210) rotate(45)">外苑前</text>
    <text transform="translate(210,210) rotate(45)">青山一丁目</text>
    <text transform="translate(280,234)">赤坂見附</text>
    <text transform="translate(330,280)">溜池山王</text>
    <text transform="translate(420,210) rotate(45)">虎ノ門</text>

    <text transform="translate(90,360) rotate(45)">広尾</text>
    <text transform="translate(155,360) rotate(45)">六本木</text>

    <text transform="translate(70,520) rotate(45)">白金台</text>
    <text transform="translate(140,520) rotate(45)">白金高輪</text>
    <text transform="translate(75,645) rotate(45)">高輪台</text>
    <text transform="translate(145,645) rotate(45)">泉源寺</text>

    <text transform="translate(140,-320) rotate(45)">東池袋</text>
    <text transform="translate(210,-320) rotate(45)">護国寺</text>
    <text transform="translate(280,-320) rotate(45)">江戸川橋</text>

    <text transform="translate(-90,7)">代々木上原</text>
    <text transform="translate(-50,49)">代々木公園</text>
    <text transform="translate(45,134)">明治神宮前 原宿</text>
    <text transform="translate(100,80)">北参道</text>
    <text transform="translate(120,0)">新宿三丁目</text>
    <text transform="translate(120,-80)">東新宿</text>
    <text transform="translate(120,-160)">西早稲田</text>
    <text transform="translate(120,-240)">雑司が谷</text>

    <text transform="translate(100,292)">乃木坂</text>
    <!--新橋-->
    <text transform="translate(560,210) rotate(45)">銀座</text>
    <text transform="translate(630,210) rotate(45)">京橋</text>
    <text transform="translate(700,210) rotate(45)">日本橋</text>
    <text transform="translate(770,210) rotate(45)">三越前</text>
    <!--神田駅-->
    <text transform="translate(910,210) rotate(45)">末広町</text>
    <text transform="translate(980,210) rotate(45)">上野広小路</text>
    <!--上野-->
    <text transform="translate(1120,210) rotate(45)">稲荷町</text>
    <text transform="translate(1190,210) rotate(45)">田原町</text>
    <text transform="translate(1260,210) rotate(45)">上野広小路</text>
   </g>
  </g>

  <g id="tokyo-metro-lines" stroke-linejoin="round" stroke-width="12" stroke-linecap="round">
   <polyline stroke="#e69" id="ooedo-line" points="-110,-70  900,-70  660,-70" fill="none" />
   <polyline stroke="#074" id="chiyoda-line" points="-107,0  -47,60  200,300  660,72  900,60" fill="none" />

   <polyline stroke="#884" id="fukutoshin-line" points="0,144  100,60   1400,60" fill="none" />
   <polyline stroke="#86c" id="hanzomon-line"   points="0,167  1400,167" fill="none" />
   <polyline stroke="#fa2" id="ginza-line"      points="0,190  240,190 470,400 1400,190" fill="none" />
   <polyline stroke="#887" id="hibiya-line" points="-60,340  1000,340" fill="none" />

   <polyline stroke="#076" id="nanboku-line" points="0,500  1400,500" fill="none" />
   <polyline stroke="#059" id="mita-line" points="0,476  1400,476" fill="none" />
   <polyline stroke="#d36" id="asakusa-line" points="0,625   1400,625" fill="none" />

   <polyline id="marunouchi-line" points="900,-50  660,260  0,260" fill="none" />
   <polyline id="tozai-line" points="900,-50  660,260  0,260" fill="none" />
   <polyline id="yurakucho-line" points="900,-50  660,260  0,260" fill="none" />


   <!-- Toei -->
   <polyline id="shinjuku-line" points="900,-50  660,260  0,260" fill="none" />
  </g>
 </defs>

 <g transform="translate(160,320) scale(0.74)" >
  <use xmlns:xlink="http://www.w3.org/1999/xlink" xlink:href="#tokyo-metro-lines" />

  <!-- Texts -->
  <g font-family="Helvetica, Arial, 'Hiragino Kaku Gothic ProN', Meiryo, sans-serif">
   <use xmlns:xlink="http://www.w3.org/1999/xlink" xlink:href="#tokyo-metro-labels" />
  </g>
 </g>
</svg>
