<svg version="1.1" baseProfile="full" xmlns="http://www.w3.org/2000/svg" height="1260">
 <defs>
  <g id="tokyo-expwy-c2">
   <g id="tokyo-expwy-c2-texts" font-family="Helvetica, Arial, 'Hiragino Kaku Gothic ProN', Meiryo, sans-serif">
    <text x="-50" y="-70" font-size="45" fill="#233">東京中央環状線 (C2)</text>

    <g id="tokyo-expwy-c2-jct-labels" font-size="32" font-weight="bold" fill="#355" >
     <text x="16" y="8">大橋JCT (至目黒線)</text>
     <text x="32" y="230">西新宿JCT (新宿線 高井戸方面のみ)</text>
     <text x="16" y="510">熊野町JCT (池袋線 - 都心方面)</text>
     <text x="36" y="590">板橋JCT (池袋線 - 郊外方面)</text>
     <text x="36" y="810">江北JCT (川口線)</text>

     <text x="16" y="1080">小菅JCT (三郷線)</text>
     <text x="36" y="1190">堀切JCT (向島線)</text>
     <text x="16" y="1530">葛西JCT</text>
    </g>

    <g id="tokyo-expwy-c2-ic-labels" font-size="23" font-weight="bold" fill="#244" >
     <text transform="translate(30,80)">富ヶ谷IC</text>
     <text transform="translate(30,150)">初台南IC</text>

     <text transform="translate(30,310)">中野長者橋IC</text>
     <text transform="translate(30,380)">西池袋IC (21.6km)</text>
     <text transform="translate(30,430)">高松入口 (23.7km)</text>

     <text transform="translate(30,660)">新板橋IC / 滝野川IC</text>
     <text transform="translate(30,730)">王子北IC</text>

     <text transform="translate(30,895)">扇大橋IC (31.4km / 32.4km)</text>
     <text transform="translate(26,985)">千住新橋IC (34.4km / 35.4km)</text>
     <text transform="translate(30,1130)">小菅IC</text>
     <text transform="translate(30,1285)">四つ木IC (38.7km / 39.6km)</text>
     <text transform="translate(30,1360)">平井大橋 (41.5km)</text>
     <text transform="translate(30,1410)">船堀橋IC (45.4km)</text>
     <text transform="translate(30,1460)">清新町IC (47.5km)</text>
    </g>
   </g>

   <g id="tokyo-expwy-c2-lines" stroke="#385" stroke-width="15" stroke-linejoin="round">
    <polyline id="tokyo-expwy-c2-1" points="0,-40 0,1550" fill="none" />
    <polyline id="tokyo-expwy-c2-3" points="0,220 25,220" fill="none" />
   </g>

   <g stroke="#386" stroke-width="12">
    <polyline id="tokyo-expwy-c2-2" points="-30,-40 80,-40" fill="none" />
    <polyline id="tokyo-expwy-c2-4" points="-30,1550 80,1550" fill="none" />

    <!-- Kumanocho / Itabashi JCT -->
    <path d="M-32,480 Q0,480 0,530" fill="none"/>
    <path d="M32,580 Q0,580 0,530" fill="none"/>

    <!-- Kohoku JCT -->
    <path d="M34,800 Q0,800 0,750" fill="none"/>
    <path d="M34,800 Q0,800 0,850" fill="none"/>

    <!-- Kosuge JCT -->
    <path d="M-34,1070 Q0,1070 0,1020" fill="none"/>
    <path d="M-34,1070 Q0,1070 0,1120" fill="none"/>

    <!-- Horikiri JCT -->
    <path d="M34,1180 Q0,1180 0,1130" fill="none"/>
    <path d="M34,1180 Q0,1180 0,1230" fill="none"/>
   </g>
   <g stroke="#386" stroke-width="9">
    <!-- Toyogaya IC -->
    <polyline points="-24,60 0,80" fill="none"/>
    <polyline points="24,60 0,80" fill="none"/>

    <!-- hatsudai minami IC -->
    <polyline points="-24,150 0,130" fill="none"/>
    <polyline points="24,150 0,130" fill="none"/>

    <!-- Nakano Choja IC -->
    <polyline points="-24,290 0,310" fill="none"/>
    <polyline points="24,290 0,310" fill="none"/>

    <!-- Nishi-ikebukuro / Takamatsu IC -->
    <polyline points="-24,380 0,360" fill="none"/>
    <polyline points="24,380 0,360" fill="none"/>
    <polyline points="-24,400 0,420" fill="none"/>
    <polyline points="24,420 0,440" fill="none"/>
    
    <!-- Itabashi JCT -->
    <path d="M32,580 Q0,580 0,630" fill="none"/>

    <!-- Shin-itabashi, Takinogawa IC -->
    <polyline points="-24,660 0,640" fill="none"/>
    <polyline points="24,660 0,640" fill="none"/>

    <!-- Ohzikita IC -->
    <polyline points="-24,710 0,730" fill="none"/>
    <polyline points="24,710 0,730" fill="none"/>

    <!-- Ohgi-oohashi IC -->
    <polyline points="-24,875 0,855" fill="none"/>
    <polyline points="24,875 0,855" fill="none"/>
    <polyline points="-24,900 0,920" fill="none"/>
    <polyline points="24,900 0,920" fill="none"/>

    <!-- Seiju-oohashi IC -->
    <polyline points="-24,965 0,945" fill="none"/>
    <polyline points="24,965 0,945" fill="none"/>
    <polyline points="-24,990 0,1010" fill="none"/>
    <polyline points="24,990 0,1010" fill="none"/>

    <!-- Kosuge IC -->
    <polyline points="-24,1120 0,1140" fill="none"/>
    <polyline points="24,1120 0,1140" fill="none"/>

    <!-- Yotsugi IC -->
    <polyline points="-24,1260 0,1240" fill="none"/>
    <polyline points="24,1260 0,1240" fill="none"/>
    <polyline points="-24,1290 0,1310" fill="none"/>
    <polyline points="24,1290 0,1310" fill="none"/>

    <!-- Hirai Oohashi, Hunaboribashi IC -->
    <polyline points="-24,1360 0,1340" fill="none"/>
    <polyline points="24,1360 0,1340" fill="none"/>
    <polyline points="-24,1390 0,1410" fill="none"/>
    <polyline points="24,1390 0,1410" fill="none"/>
    <polyline points="-24,1460 0,1440" fill="none"/>
    <polyline points="24,1460 0,1440" fill="none"/>
   </g>
  </g>
 </defs>

 <use xmlns:xlink="http://www.w3.org/1999/xlink"
      xlink:href="#tokyo-expwy-c2"
      transform="translate(55,90) scale(0.74)" />
</svg>
